<svg width="24" height="24" viewBox="0 0 24 24" fill="none" xmlns="http://www.w3.org/2000/svg">
<circle cx="12" cy="12" r="12" fill="#FFC43A"/>
<ellipse cx="10.3254" cy="11.4217" rx="0.337349" ry="0.53012" fill="currentColor"/>
<ellipse cx="13.5061" cy="11.4217" rx="0.337349" ry="0.53012" fill="currentColor"/>
<path d="M12.4936 14.2553C12.3139 14.4385 12.0204 14.4432 11.835 14.2659L10.9869 13.4551C10.684 13.1655 10.8843 12.6543 11.3033 12.6476L12.973 12.6208C13.392 12.614 13.6086 13.1185 13.3152 13.4177L12.4936 14.2553Z" fill="currentColor"/>
<path d="M9.1646 14.8127L9.41093 15.6609C9.4314 15.7314 9.45685 15.8004 9.48709 15.8673L9.50157 15.8993C9.61364 16.1472 9.79409 16.3581 10.0218 16.5071V16.5071C10.2076 16.6287 10.4192 16.7054 10.6398 16.7311L10.8631 16.7571C11.0305 16.7766 11.2001 16.7542 11.3567 16.692V16.692C11.6257 16.5851 11.8366 16.3689 11.9365 16.0973L12.1036 15.6436C12.2166 15.3365 12.2473 15.0051 12.1927 14.6825L12.0748 13.987" fill="transparent" stroke="currentColor" stroke-width="0.1875"/>
<path d="M15.2374 14.2251L15.205 15.1078C15.2023 15.1811 15.1944 15.2542 15.1813 15.3264L15.1751 15.361C15.1267 15.6288 15.003 15.8772 14.8184 16.0771V16.0771C14.6678 16.2403 14.4812 16.3662 14.2735 16.4448L14.0633 16.5244C13.9056 16.584 13.7357 16.6036 13.5686 16.5814V16.5814C13.2817 16.5432 13.0246 16.3848 12.8615 16.1457L12.5891 15.7463C12.4047 15.4759 12.2942 15.162 12.2688 14.8358L12.2138 14.1325" fill="transparent" stroke="currentColor" stroke-width="0.1875"/>
<path fill-rule="evenodd" clip-rule="evenodd" d="M24 12C24 18.6274 18.6274 24 12 24C5.37258 24 0 18.6274 0 12C0 5.37258 5.37258 0 12 0C18.6274 0 24 5.37258 24 12ZM6.93738 2.53317L6.47726 3.23189C6.45569 3.26465 6.43831 3.29999 6.42554 3.33707L5.88085 4.91888C5.861 4.97651 5.85259 5.03746 5.85608 5.09831L5.97445 7.16395C5.97603 7.19141 5.97518 7.21896 5.97192 7.24628L5.8433 8.32487C5.8275 8.45731 5.8684 8.58253 5.94608 8.67736C5.02922 10.1079 4.61767 11.8699 4.91512 13.6793C5.03608 14.4151 5.26562 15.106 5.58464 15.7382L5.32334 15.9548C4.92395 16.2859 4.86942 16.8784 5.20167 17.2769L5.27444 17.3642C5.46857 17.597 5.53815 17.9093 5.46122 18.2025L5.38888 18.4782C5.35534 18.6061 5.3492 18.7396 5.37089 18.87L5.3935 19.0059C5.42258 19.1807 5.50061 19.3437 5.61854 19.476L5.89384 19.7847L6.37447 20.2509C6.68087 20.5481 7.19253 20.4233 7.32764 20.0184L7.3919 19.8258C7.4016 19.7967 7.42292 19.773 7.45078 19.7601C7.51142 19.7323 7.58278 19.7638 7.60293 19.8274L7.83903 20.5729C7.87251 20.6786 7.93623 20.7722 8.02233 20.8421L8.27487 21.047C8.47876 21.2125 8.78549 21.1106 8.84984 20.856C8.91018 20.6173 9.18724 20.5085 9.39385 20.6425L9.75876 20.879C9.99689 21.0334 10.2897 20.7829 10.1742 20.5237L10.1544 20.4795C10.12 20.4023 10.1349 20.3121 10.1921 20.25C10.2705 20.1651 10.4025 20.1587 10.4886 20.2358L11.4775 21.1206C11.5961 21.2267 11.7397 21.3009 11.8949 21.3361L12.8026 21.5424C12.9593 21.5781 13.1197 21.4994 13.1874 21.3537C13.2796 21.1555 13.5317 21.0939 13.7048 21.2273L13.7645 21.2732C13.8177 21.3142 13.8803 21.3412 13.9466 21.3517L14.0728 21.3716C14.2877 21.4056 14.5053 21.33 14.6528 21.1701C14.9077 20.8937 15.3431 20.8902 15.6024 21.1624L15.7481 21.3154C15.8043 21.3745 15.8785 21.4134 15.959 21.4261C16.0619 21.4424 16.1668 21.4148 16.2483 21.3499L17.2562 20.5483C17.3174 20.4996 17.3723 20.4434 17.4196 20.381L18.2044 19.3459C18.249 19.2871 18.3123 19.2452 18.3838 19.2271C18.5281 19.1906 18.6291 19.0608 18.6292 18.912L18.6293 18.6224C18.6293 18.4472 18.8151 18.3344 18.9706 18.4151C19.0822 18.473 19.2195 18.4323 19.2815 18.3229L19.3414 18.2173C19.3626 18.1798 19.377 18.1388 19.3837 18.0962L19.4269 17.8235C19.4461 17.7017 19.4299 17.577 19.3801 17.4643L18.9302 16.4461C18.8604 16.2881 19.0185 16.1255 19.1784 16.1908C19.3216 16.2493 19.4717 16.1231 19.4385 15.972L19.2987 15.3348C19.2747 15.2254 19.2169 15.1264 19.1336 15.0516L18.7304 14.6898L18.7274 14.6871C19.0584 13.6489 19.1555 12.5187 18.9665 11.3693C18.7482 10.0411 18.1761 8.85936 17.3625 7.90479C17.4374 7.83807 17.4726 7.73199 17.4433 7.62827L16.7703 5.2406L15.6764 2.44022C15.6387 2.34362 15.57 2.26226 15.4811 2.20888L15.3016 2.10115C15.0443 1.94666 14.7101 2.07045 14.6155 2.35529L13.5446 5.57974C12.6647 5.37562 11.7312 5.33672 10.7848 5.4923C10.39 5.5572 10.0082 5.65344 9.64148 5.77806L9.75602 4.8176C9.77237 4.68046 9.72742 4.54309 9.63315 4.44215L8.44473 3.16966C8.41806 3.14111 8.39507 3.10933 8.37629 3.07508L8.12191 2.61116C8.04913 2.47842 7.91672 2.389 7.7664 2.37108L7.38438 2.32552C7.20808 2.3045 7.03503 2.38488 6.93738 2.53317Z" fill="#3C20AC"/>
</svg>
